<?xml version="1.0" encoding="utf-8"?>
<!-- Generator: Adobe Illustrator 15.0.0, SVG Export Plug-In . SVG Version: 6.00 Build 0)  -->
<!DOCTYPE svg PUBLIC "-//W3C//DTD SVG 1.1//EN" "http://www.w3.org/Graphics/SVG/1.1/DTD/svg11.dtd">
<svg version="1.1" id="Layer_1" xmlns="http://www.w3.org/2000/svg" xmlns:xlink="http://www.w3.org/1999/xlink" x="0px" y="0px"
	 width="153.615px" height="45.305px" viewBox="0 0 153.615 45.305" enable-background="new 0 0 153.615 45.305"
	 xml:space="preserve">
<path fill="#313133" d="M47.694,15.898h4.208l3.789,8.858l3.79-8.858h4.114v13.949h-3.324v-7.602c0-0.325,0.07-1.395,0.093-1.488
	l-0.512,1.488l-3.139,7.602h-2.231l-3.139-7.602c-0.14-0.325-0.465-1.325-0.511-1.488c0,0.093,0.093,1.163,0.093,1.488v7.602h-3.231
	V15.898z"/>
<path fill="#313133" d="M74.359,24.431l-1.673-4.394l-1.674,4.394H74.359z M71.151,15.898h3.185l5.859,13.949h-3.743l-1.185-2.976
	h-5.162l-1.162,2.976h-3.65L71.151,15.898z"/>
<polygon fill="#313133" points="83.381,18.735 78.895,18.735 78.895,15.898 91.633,15.898 91.633,18.735 87.147,18.735 
	87.147,29.848 83.381,29.848 "/>
<path fill="#313133" d="M99.398,24.431l-1.674-4.394l-1.674,4.394H99.398z M96.19,15.898h3.185l5.859,13.949h-3.744l-1.185-2.976
	h-5.161l-1.162,2.976h-3.65L96.19,15.898z"/>
<polygon fill="#313133" points="108.42,18.735 103.933,18.735 103.933,15.898 116.672,15.898 116.672,18.735 112.186,18.735 
	112.186,29.848 108.42,29.848 "/>
<rect x="118.416" y="15.898" fill="#313133" width="3.768" height="13.949"/>
<polygon fill="#313133" points="134.271,29.848 128.971,23.548 128.971,29.848 125.205,29.848 125.205,15.898 128.971,15.898 
	128.971,22.06 133.83,15.898 137.875,15.898 132.459,22.548 138.806,29.848 "/>
<path fill="#313133" d="M147.779,24.431l-1.673-4.394l-1.674,4.394H147.779z M144.571,15.898h3.185l5.859,13.949h-3.742
	l-1.187-2.976h-5.161l-1.162,2.976h-3.65L144.571,15.898z"/>
<polygon fill="#FFAA29" points="39.554,32.734 39.554,10.936 20.675,0.036 1.796,10.936 1.796,32.734 20.675,43.634 "/>
<polygon fill="#FFFFFF" points="30.137,27.302 30.137,16.368 20.668,10.901 11.199,16.368 11.199,27.302 20.668,32.769 "/>
<polygon fill="#FFCA57" points="1.825,10.886 20.714,0 39.532,10.917 20.641,21.802 "/>
<polygon fill="#FFAB2B" points="1.837,10.931 1.821,32.89 20.743,43.734 20.759,21.775 "/>
<polygon fill="#EE7A34" points="39.611,32.725 39.653,10.91 20.736,21.774 20.693,43.592 "/>
<polygon fill="#FFFFFF" points="30.173,27.35 30.173,16.438 20.758,10.982 11.343,16.438 11.343,27.35 20.758,32.805 "/>
<rect x="19.976" y="31.588" fill="#FFFFFF" width="1.375" height="13.717"/>
<rect x="29.703" y="5.082" transform="matrix(-0.5001 -0.866 0.866 -0.5001 31.4863 50.7468)" fill="#FFFFFF" width="1.376" height="22.406"/>
<rect x="9.817" y="4.163" transform="matrix(-0.5001 0.866 -0.866 -0.5001 29.522 14.7466)" fill="#FFFFFF" width="1.376" height="23.464"/>
<polygon fill="#C7C9CA" points="27.374,25.74 27.374,17.96 20.675,14.069 13.976,17.96 13.976,25.74 20.675,29.63 "/>
<polygon fill="none" stroke="#6D6F72" stroke-width="0.5" stroke-miterlimit="10" points="27.374,25.74 27.374,17.96 20.675,14.069 
	13.976,17.96 13.976,25.74 20.675,29.63 "/>
<polygon fill="#C7C9CB" points="14.074,25.61 14.082,18.156 20.545,21.87 20.537,29.324 "/>
<polygon fill="none" stroke="#6D6F72" stroke-width="0.5" stroke-miterlimit="10" points="14.074,25.61 14.082,18.156 20.545,21.87 
	20.537,29.324 "/>
<polygon fill="#C7C9CB" points="20.757,21.862 27.286,18.116 27.259,25.644 20.73,29.389 "/>
<polygon fill="none" stroke="#6D6F72" stroke-width="0.5" stroke-miterlimit="10" points="20.757,21.862 27.286,18.116 
	27.259,25.644 20.73,29.389 "/>
<polygon fill="#C7C9CB" points="27.106,17.946 20.618,14.224 14.166,17.894 20.653,21.616 "/>
<polygon fill="none" stroke="#6D6F72" stroke-width="0.5" stroke-miterlimit="10" points="27.106,17.946 20.618,14.224 
	14.166,17.894 20.653,21.616 "/>
</svg>
