<?xml version="1.0" encoding="UTF-8" standalone="no"?>
<!-- Created with Inkscape (http://www.inkscape.org/) -->

<svg
   xmlns:dc="http://purl.org/dc/elements/1.1/"
   xmlns:cc="http://creativecommons.org/ns#"
   xmlns:rdf="http://www.w3.org/1999/02/22-rdf-syntax-ns#"
   xmlns:svg="http://www.w3.org/2000/svg"
   xmlns="http://www.w3.org/2000/svg"
   xmlns:sodipodi="http://sodipodi.sourceforge.net/DTD/sodipodi-0.dtd"
   xmlns:inkscape="http://www.inkscape.org/namespaces/inkscape"
   width="360mm"
   height="390mm"
   viewBox="0 0 360 390"
   version="1.1"
   id="svg3956"
   inkscape:version="0.92.4 (5da689c313, 2019-01-14)"
   sodipodi:docname="Icon section heading.svg">
  <defs
     id="defs3950" />
  <sodipodi:namedview
     id="base"
     pagecolor="#ffffff"
     bordercolor="#666666"
     borderopacity="1.0"
     inkscape:pageopacity="0.0"
     inkscape:pageshadow="2"
     inkscape:zoom="0.49497475"
     inkscape:cx="828.34408"
     inkscape:cy="722.72568"
     inkscape:document-units="mm"
     inkscape:current-layer="layer1"
     showgrid="false"
     inkscape:window-width="1920"
     inkscape:window-height="1001"
     inkscape:window-x="-9"
     inkscape:window-y="-9"
     inkscape:window-maximized="1" />
  <metadata
     id="metadata3953">
    <rdf:RDF>
      <cc:Work
         rdf:about="">
        <dc:format>image/svg+xml</dc:format>
        <dc:type
           rdf:resource="http://purl.org/dc/dcmitype/StillImage" />
        <dc:title></dc:title>
      </cc:Work>
    </rdf:RDF>
  </metadata>
  <g
     inkscape:label="Layer 1"
     inkscape:groupmode="layer"
     id="layer1"
     transform="translate(0,93)">
    <g
       id="g5308"
       transform="matrix(19.136141,0,0,19.136141,-135.75287,-3579.1638)">
      <g
         transform="matrix(0.35277777,0,0,-0.35277777,25.248062,197.55818)"
         id="g3874">
        <path
           inkscape:connector-curvature="0"
           id="path3876"
           style="fill:#fdbb3f;fill-opacity:1;fill-rule:nonzero;stroke:none"
           d="M 0,0 V 28.749 L -24.896,43.122 -49.793,28.749 V 0 l 24.897,-14.374 z" />
      </g>
      <g
         transform="matrix(0.35277777,0,0,-0.35277777,20.867302,195.03066)"
         id="g3878">
        <path
           inkscape:connector-curvature="0"
           id="path3880"
           style="fill:#ffffff;fill-opacity:1;fill-rule:nonzero;stroke:none"
           d="m 0,0 v 14.419 l -12.487,7.21 -12.488,-7.21 V 0 l 12.488,-7.209 z" />
      </g>
      <g
         transform="matrix(0.35277777,0,0,-0.35277777,7.6955018,187.39341)"
         id="g3882">
        <path
           inkscape:connector-curvature="0"
           id="path3884"
           style="fill:#ffd56f;fill-opacity:1;fill-rule:nonzero;stroke:none"
           d="M 0,0 24.912,14.356 49.727,-0.041 24.814,-14.396 Z" />
      </g>
      <g
         transform="matrix(0.35277777,0,0,-0.35277777,7.7013618,187.41444)"
         id="g3886">
        <path
           inkscape:connector-curvature="0"
           id="path3888"
           style="fill:#fdbb41;fill-opacity:1;fill-rule:nonzero;stroke:none"
           d="m 0,0 -0.022,-28.958 24.954,-14.302 0.021,28.959 z" />
      </g>
      <g
         transform="matrix(0.35277777,0,0,-0.35277777,25.275122,197.55334)"
         id="g3890">
        <path
           inkscape:connector-curvature="0"
           id="path3892"
           style="fill:#f19048;fill-opacity:1;fill-rule:nonzero;stroke:none"
           d="M 0,0 0.056,28.768 -24.892,14.441 -24.948,-14.332 Z" />
      </g>
      <g
         transform="matrix(0.35277777,0,0,-0.35277777,20.884342,195.05271)"
         id="g3894">
        <path
           inkscape:connector-curvature="0"
           id="path3896"
           style="fill:#ffffff;fill-opacity:1;fill-rule:nonzero;stroke:none"
           d="m 0,0 v 14.389 l -12.417,7.195 -12.416,-7.195 V 0 l 12.416,-7.195 z" />
      </g>
      <path
         inkscape:connector-curvature="0"
         id="path3898"
         style="fill:#ffffff;fill-opacity:1;fill-rule:nonzero;stroke:none;stroke-width:0.35277775"
         d="m 16.779672,197.02442 h -0.63994 v 6.38175 h 0.63994 z" />
      <g
         transform="matrix(0.35277777,0,0,-0.35277777,25.659262,187.57633)"
         id="g3900">
        <path
           inkscape:connector-curvature="0"
           id="path3902"
           style="fill:#ffffff;fill-opacity:1;fill-rule:nonzero;stroke:none"
           d="m 0,0 -0.907,1.571 -25.589,-14.774 0.907,-1.571 z" />
      </g>
      <g
         transform="matrix(0.35277777,0,0,-0.35277777,7.1666518,186.71749)"
         id="g3904">
        <path
           inkscape:connector-curvature="0"
           id="path3906"
           style="fill:#ffffff;fill-opacity:1;fill-rule:nonzero;stroke:none"
           d="m 0,0 -0.907,-1.571 26.798,-15.472 0.907,1.571 z" />
      </g>
      <g
         transform="matrix(0.35277777,0,0,-0.35277777,19.581572,194.30394)"
         id="g3908">
        <path
           inkscape:connector-curvature="0"
           id="path3910"
           style="fill:#d2d3d4;fill-opacity:1;fill-rule:nonzero;stroke:none"
           d="m 0,0 v 10.26 l -8.834,5.13 -8.834,-5.13 V 0 l 8.834,-5.13 z" />
      </g>
      <g
         transform="matrix(0.35277777,0,0,-0.35277777,19.581572,194.30394)"
         id="g3912">
        <path
           inkscape:connector-curvature="0"
           id="path3914"
           style="fill:none;stroke:#808285;stroke-width:0.5;stroke-linecap:butt;stroke-linejoin:miter;stroke-miterlimit:10;stroke-dasharray:none;stroke-opacity:1"
           d="m 0,0 v 10.26 l -8.834,5.13 -8.834,-5.13 V 0 l 8.834,-5.13 z" />
      </g>
      <g
         transform="matrix(0.35277777,0,0,-0.35277777,13.394382,194.24383)"
         id="g3916">
        <path
           inkscape:connector-curvature="0"
           id="path3918"
           style="fill:#d1d3d4;fill-opacity:1;fill-rule:nonzero;stroke:none"
           d="M 0,0 0.01,9.83 8.533,4.933 8.523,-4.898 Z" />
      </g>
      <g
         transform="matrix(0.35277777,0,0,-0.35277777,13.394382,194.24383)"
         id="g3920">
        <path
           inkscape:connector-curvature="0"
           id="path3922"
           style="fill:none;stroke:#808285;stroke-width:0.5;stroke-linecap:butt;stroke-linejoin:miter;stroke-miterlimit:10;stroke-dasharray:none;stroke-opacity:1"
           d="M 0,0 0.01,9.83 8.533,4.933 8.523,-4.898 Z" />
      </g>
      <g
         transform="matrix(0.35277777,0,0,-0.35277777,16.503552,192.49991)"
         id="g3924">
        <path
           inkscape:connector-curvature="0"
           id="path3926"
           style="fill:#d1d3d4;fill-opacity:1;fill-rule:nonzero;stroke:none"
           d="m 0,0 8.61,4.94 -0.036,-9.926 -8.61,-4.94 z" />
      </g>
      <g
         transform="matrix(0.35277777,0,0,-0.35277777,16.503552,192.49991)"
         id="g3928">
        <path
           inkscape:connector-curvature="0"
           id="path3930"
           style="fill:none;stroke:#808285;stroke-width:0.5;stroke-linecap:butt;stroke-linejoin:miter;stroke-miterlimit:10;stroke-dasharray:none;stroke-opacity:1"
           d="m 0,0 8.61,4.94 -0.036,-9.926 -8.61,-4.94 z" />
      </g>
      <g
         transform="matrix(0.35277777,0,0,-0.35277777,19.457222,190.67813)"
         id="g3932">
        <path
           inkscape:connector-curvature="0"
           id="path3934"
           style="fill:#d1d3d4;fill-opacity:1;fill-rule:nonzero;stroke:none"
           d="m 0,0 -8.557,4.909 -8.509,-4.84 8.557,-4.909 z" />
      </g>
      <g
         transform="matrix(0.35277777,0,0,-0.35277777,19.457222,190.67813)"
         id="g3936">
        <path
           inkscape:connector-curvature="0"
           id="path3938"
           style="fill:none;stroke:#808285;stroke-width:0.5;stroke-linecap:butt;stroke-linejoin:miter;stroke-miterlimit:10;stroke-dasharray:none;stroke-opacity:1"
           d="m 0,0 -8.557,4.909 -8.509,-4.84 8.557,-4.909 z" />
      </g>
    </g>
  </g>
</svg>
