<svg xmlns="http://www.w3.org/2000/svg" width="109.908" height="102.24"><path fill="#185c37" d="M63.21 48.851l-34.762-6.134v45.327a3.748 3.748 0 003.748 3.748h59.982a3.748 3.748 0 003.748-3.748v-16.7z"/><path fill="#21a366" d="M63.21 10H32.196a3.748 3.748 0 00-3.748 3.748v16.7L63.21 50.896l18.403 6.134 14.313-6.134V30.448z"/><path fill="#107c41" d="M28.448 30.448H63.21v20.448H28.448z"/><path opacity=".1" d="M53.327 26.358H28.448v51.12h24.88a3.76 3.76 0 003.747-3.748V30.107a3.76 3.76 0 00-3.748-3.749z"/><path opacity=".2" d="M51.282 28.403H28.448v51.12h22.834a3.76 3.76 0 003.748-3.748V32.151a3.76 3.76 0 00-3.748-3.748z"/><path opacity=".2" d="M51.282 28.403H28.448v47.03h22.834a3.76 3.76 0 003.748-3.748V32.151a3.76 3.76 0 00-3.748-3.748z"/><path opacity=".2" d="M49.237 28.403H28.448v47.03h20.79a3.76 3.76 0 003.748-3.748V32.151a3.76 3.76 0 00-3.749-3.748z"/><linearGradient id="a" gradientUnits="userSpaceOnUse" x1="203.513" y1="1729.018" x2="967.987" y2="404.982" gradientTransform="matrix(.0384 0 0 -.0384 8 91.869)"><stop offset="0" stop-color="#18884f"/><stop offset=".5" stop-color="#117e43"/><stop offset="1" stop-color="#0b6631"/></linearGradient><path fill="url(#a)" d="M11.748 28.403h37.49a3.748 3.748 0 013.748 3.748v37.49a3.748 3.748 0 01-3.749 3.748H11.748A3.748 3.748 0 018 69.64V32.15a3.748 3.748 0 013.748-3.748z"/><path fill="#fff" d="M19.608 63.079l7.885-12.218-7.224-12.15h5.811l3.942 7.77c.364.738.614 1.286.749 1.648h.051c.259-.589.532-1.16.818-1.715l4.214-7.699h5.335l-7.408 12.079 7.596 12.285h-5.676l-4.554-8.529a7.154 7.154 0 01-.544-1.139h-.067c-.134.387-.31.757-.528 1.104L25.32 63.08z"/><path fill="#33c481" d="M92.178 10H63.21v20.448h32.716v-16.7A3.748 3.748 0 0092.178 10z"/><path fill="#107c41" d="M63.21 50.896h32.716v20.448H63.21z"/></svg>