<svg width="100" height="100" viewBox="0 0 100 100" fill="none" xmlns="http://www.w3.org/2000/svg">
<rect width="100" height="100" rx="50" fill="#453DD8"></rect>
<path d="M55.303 31.1303C54.5561 31.1303 53.9482 31.7443 53.9482 32.4986C53.9482 33.2529 54.5561 33.8668 55.303 33.8668C56.0499 33.8668 56.6578 33.2529 56.6578 32.4986C56.6578 31.7443 56.0499 31.1303 55.303 31.1303Z" fill="white"></path>
<path d="M55.303 37.4366C54.5561 37.4366 53.9482 38.0505 53.9482 38.8048C53.9482 39.5591 54.5561 40.1731 55.303 40.1731C56.0499 40.1731 56.6578 39.5591 56.6578 38.8048C56.6578 38.0505 56.0499 37.4366 55.303 37.4366Z" fill="white"></path>
<path d="M55.303 43.7424C54.5561 43.7424 53.9482 44.3564 53.9482 45.1107C53.9482 45.865 54.5561 46.479 55.303 46.479C56.0499 46.479 56.6578 45.865 56.6578 45.1107C56.6578 44.3564 56.0499 43.7424 55.303 43.7424Z" fill="white"></path>
<path d="M61.6699 31.1303C60.9231 31.1303 60.3152 31.7443 60.3152 32.4986C60.3152 33.2529 60.9231 33.8668 61.6699 33.8668C62.4168 33.8668 63.0247 33.2529 63.0247 32.4986C63.0247 31.7443 62.4168 31.1303 61.6699 31.1303Z" fill="white"></path>
<path d="M61.6706 37.4366C60.9237 37.4366 60.3158 38.0505 60.3158 38.8048C60.3158 39.5591 60.9237 40.1731 61.6706 40.1731C62.4174 40.1731 63.0253 39.5591 63.0253 38.8048C63.0253 38.0505 62.4174 37.4366 61.6706 37.4366Z" fill="white"></path>
<path d="M61.6706 43.7424C60.9237 43.7424 60.3158 44.3564 60.3158 45.1107C60.3158 45.865 60.9237 46.479 61.6706 46.479C62.4174 46.479 63.0253 45.865 63.0253 45.1107C63.0253 44.3564 62.4174 43.7424 61.6706 43.7424Z" fill="white"></path>
<path d="M67.9244 31.1303C67.1776 31.1303 66.5697 31.7443 66.5697 32.4986C66.5697 33.2529 67.1776 33.8668 67.9244 33.8668C68.6713 33.8668 69.2792 33.2529 69.2792 32.4986C69.2879 31.7443 68.68 31.1303 67.9244 31.1303Z" fill="white"></path>
<path d="M67.9251 37.4366C67.1782 37.4366 66.5703 38.0505 66.5703 38.8048C66.5703 39.5591 67.1782 40.1731 67.9251 40.1731C68.6719 40.1731 69.2798 39.5591 69.2798 38.8048C69.2885 38.0505 68.6806 37.4366 67.9251 37.4366Z" fill="white"></path>
<path d="M67.9251 43.7424C67.1782 43.7424 66.5703 44.3564 66.5703 45.1107C66.5703 45.865 67.1782 46.479 67.9251 46.479C68.6719 46.479 69.2798 45.865 69.2798 45.1107C69.2798 44.3564 68.6806 43.7424 67.9251 43.7424Z" fill="white"></path>
<path fill-rule="evenodd" clip-rule="evenodd" d="M30 38.7653C30 34.3847 33.5512 30.8334 37.9319 30.8334C42.3126 30.8334 45.8638 34.3847 45.8638 38.7653V60.828C45.8638 65.2087 42.3126 68.7599 37.9319 68.7599C33.5512 68.7599 30 65.2087 30 60.828V38.7653ZM32.2679 60.5795C32.3408 57.4084 34.939 54.8962 38.0654 54.9701C41.1979 55.044 43.6747 57.6793 43.5958 60.8504C43.5229 64.0215 40.9247 66.5337 37.7983 66.4598C34.6719 66.3859 32.1951 63.7505 32.2679 60.5795ZM36.0412 62.771H39.8293V58.9288H36.0412V62.771ZM38.1862 33.2711C41.3144 33.348 43.7929 35.9824 43.7223 39.1552C43.6516 42.3281 41.0585 44.8379 37.9303 44.761C34.8022 44.6841 32.3236 42.0497 32.3943 38.8769C32.465 35.704 35.0581 33.1942 38.1862 33.2711Z" fill="white"></path>
<path fill-rule="evenodd" clip-rule="evenodd" d="M53.2998 52.3V69.1666H69.9998V52.3H53.2998ZM66.6068 64.5356H56.698V62.4481H66.6068V64.5356ZM56.698 59.0101H66.6068V56.9226H56.698V59.0101Z" fill="white"></path>
</svg>
